<svg xmlns="http://www.w3.org/2000/svg" width="238.62088012695312" height="246.25213623046875" viewBox="-25.64299774169922 -32.72794723510742 238.62088012695312 246.25213623046875"><title>Neo4j Graph Visualization</title><desc>Created using Neo4j (http://www.neo4j.com/)</desc><g class="layer relationships"><g class="relationship" transform="translate(183.977868250481 80.04103289160767) rotate(458.93930753929686)"><path class="outline" fill="#A5ABB6" stroke="none" d="M 24.018736134675446,6.953439040707552 L 24.277555179777966,5.987513214418485 A 103.2387947521695 103.2387947521695 0 0 0 26.243077921983993,6.493519215721776 L 26.00329748292995,7.464346358444445 A 104.2387947521695 104.2387947521695 0 0 1 24.018736134675446,6.953439040707552 Z M 72.7214448735787,8.216513098251937 L 72.51304143347603,7.238470151263741 A 103.2387947521695 103.2387947521695 0 0 0 74.49383473084853,6.796000223960125 L 73.81106484771935,3.8747290474529263 L 81.4239291232202,5.689749026076557 L 75.40419457502078,10.691028459303059 L 74.7214246918916,7.769757282795859 A 104.2387947521695 104.2387947521695 0 0 1 72.7214448735787,8.216513098251937"/><text text-anchor="middle" pointer-events="none" font-size="8px" fill="#000000" x="49.32773314626663" y="12.991847224071734" transform="rotate(180 49.32773314626663 9.991847224071734)" font-family="sans-serif">CHEAPE…</text></g><g class="relationship" transform="translate(102.14237785370246 13.744327547230712) rotate(399.0116822024607)"><path class="outline" fill="#A5ABB6" stroke="none" d="M 21.40063509461097,12.933012701892217 L 21.90063509461097,12.06698729810778 A 57.73026686100546 57.73026686100546 0 0 0 21.98615999160731,12.116267681735373 L 21.487641448417516,12.983146717181455 A 58.73026686100546 58.73026686100546 0 0 1 21.40063509461097,12.933012701892217 Z M 76.7896362463481,14.720920211907128 L 76.34652796313829,13.824452114677314 A 57.73026686100546 57.73026686100546 0 0 0 76.43497818120467,13.780638610586402 L 75.10105694446969,11.093511123066055 L 82.92726252487465,11.116010306124835 L 78.21353983018466,17.363475260613534 L 76.87961859344968,14.676347773093186 A 58.73026686100546 58.73026686100546 0 0 1 76.7896362463481,14.720920211907128"/><text text-anchor="middle" pointer-events="none" font-size="8px" fill="#000000" x="48.936881658757294" y="23.27264871139743" font-family="sans-serif">CHEAPEST…</text></g><g class="relationship" transform="translate(102.14237785370246 13.744327547230712) rotate(519.113608908209)"><path class="outline" fill="#A5ABB6" stroke="none" d="M 12.066987298107785,-21.900635094610966 L 12.933012701892222,-21.400635094610966 A 43.93261187916006 43.93261187916006 0 0 1 14.5339802215545,-23.965508234301858 L 13.704396255034617,-24.523890220484372 A 44.93261187916006 44.93261187916006 0 0 0 12.066987298107785,-21.900635094610966 Z M 85.24996612007581,-28.494496262332486 L 84.48726406375214,-27.84774625399879 A 43.93261187916006 43.93261187916006 0 0 1 86.36221432947777,-25.475778142329325 L 83.94607455274746,-23.697501285565558 L 90.91421695804827,-20.13449813941924 L 89.58373403178484,-27.846813951347684 L 87.16759425505454,-26.068537094583917 A 44.93261187916006 44.93261187916006 0 0 0 85.24996612007581,-28.494496262332486"/><text text-anchor="middle" pointer-events="none" font-size="8px" fill="#000000" x="48.5176568948654" y="-40.798672881622366" transform="rotate(180 48.5176568948654 -43.798672881622366)" font-family="sans-serif">CHEAPEST_FLIGHT</text></g><g class="relationship" transform="translate(102.14237785370246 13.744327547230712) rotate(519.113608908209)"><path class="outline" fill="#A5ABB6" stroke="none" d="M 21.40063509461097,-12.933012701892217 L 21.90063509461097,-12.06698729810778 A 58.15827109847171 58.15827109847171 0 0 1 22.17327028426777,-12.223412500378409 L 21.677958098821186,-13.092127550868575 A 59.15827109847171 59.15827109847171 0 0 0 21.40063509461097,-12.933012701892217 Z M 77.00949122538572,-14.8244029428094 L 76.56948985113644,-13.926405843338166 A 58.15827109847171 58.15827109847171 0 0 1 76.85137600209418,-13.78734115176321 L 75.51683123986548,-11.100523279705644 L 83.34304183059994,-11.12120635190584 L 78.6307690183991,-17.369764981173297 L 77.2962242561704,-14.682947109115732 A 59.15827109847171 59.15827109847171 0 0 0 77.00949122538572,-14.8244029428094"/><text text-anchor="middle" pointer-events="none" font-size="8px" fill="#000000" x="49.144243716885036" y="-17.329992617568777" transform="rotate(180 49.144243716885036 -20.329992617568777)" font-family="sans-serif">CHEAPEST…</text></g><g class="relationship" transform="translate(183.977868250481 80.04103289160767) rotate(458.93930753929686)"><path class="outline" fill="#A5ABB6" stroke="none" d="M 24.018736134675446,-6.953439040707552 L 24.277555179777966,-5.987513214418485 A 103.2387947521695 103.2387947521695 0 0 1 26.243077921983964,-6.493519215721776 L 26.003297482929916,-7.464346358444445 A 104.2387947521695 104.2387947521695 0 0 0 24.018736134675446,-6.953439040707552 Z M 72.7214448735787,-8.216513098251937 L 72.51304143347603,-7.238470151263741 A 103.2387947521695 103.2387947521695 0 0 1 74.49383473084853,-6.796000223960125 L 73.81106484771935,-3.8747290474529263 L 81.4239291232202,-5.689749026076557 L 75.40419457502078,-10.691028459303059 L 74.7214246918916,-7.769757282795859 A 104.2387947521695 104.2387947521695 0 0 0 72.7214448735787,-8.216513098251937"/><text text-anchor="middle" pointer-events="none" font-size="8px" fill="#000000" x="49.32773314626662" y="-6.9918472240717335" transform="rotate(180 49.32773314626662 -9.991847224071734)" font-family="sans-serif">CHEAPE…</text></g><g class="relationship" transform="translate(102.14237785370246 13.744327547230712) rotate(399.0116822024607)"><path class="outline" fill="#A5ABB6" stroke="none" d="M 25 0.5 L 25.71077704377209 0.5 L 25.71077704377209 -0.5 L 25 -0.5 Z M 72.60921454377208 0.5 L 73.31999158754418 0.5 L 73.31999158754418 3.5 L 80.31999158754418 0 L 73.31999158754418 -3.5 L 73.31999158754418 -0.5 L 72.60921454377208 -0.5 Z"/><text text-anchor="middle" pointer-events="none" font-size="8px" fill="#000000" x="49.15999579377209" y="3" font-family="sans-serif">CHEAPE…</text></g><g class="relationship" transform="translate(102.14237785370246 13.744327547230712) rotate(519.113608908209)"><path class="outline" fill="#A5ABB6" stroke="none" d="M 25 0.5 L 25.917376632206512 0.5 L 25.917376632206512 -0.5 L 25 -0.5 Z M 72.81581413220651 0.5 L 73.73319076441302 0.5 L 73.73319076441302 3.5 L 80.73319076441302 0 L 73.73319076441302 -3.5 L 73.73319076441302 -0.5 L 72.81581413220651 -0.5 Z"/><text text-anchor="middle" pointer-events="none" font-size="8px" fill="#000000" x="49.36659538220651" y="3" transform="rotate(180 49.36659538220651 0)" font-family="sans-serif">CHEAPE…</text></g><g class="relationship" transform="translate(102.14237785370246 13.744327547230712) rotate(519.113608908209)"><path class="outline" fill="#A5ABB6" stroke="none" d="M 21.40063509461097,12.933012701892217 L 21.90063509461097,12.06698729810778 A 58.15827109847171 58.15827109847171 0 0 0 22.17327028426776,12.223412500378409 L 21.677958098821172,13.092127550868568 A 59.15827109847171 59.15827109847171 0 0 1 21.40063509461097,12.933012701892217 Z M 77.00949122538572,14.8244029428094 L 76.56948985113644,13.926405843338166 A 58.15827109847171 58.15827109847171 0 0 0 76.85137600209418,13.78734115176321 L 75.51683123986548,11.100523279705644 L 83.34304183059994,11.12120635190584 L 78.6307690183991,17.369764981173297 L 77.2962242561704,14.682947109115732 A 59.15827109847171 59.15827109847171 0 0 1 77.00949122538572,14.8244029428094"/><text text-anchor="middle" pointer-events="none" font-size="8px" fill="#000000" x="49.144243716885036" y="23.329992617568777" transform="rotate(180 49.144243716885036 20.329992617568777)" font-family="sans-serif">CHEAPEST…</text></g><g class="relationship" transform="translate(102.14237785370246 13.744327547230712) rotate(519.113608908209)"><path class="outline" fill="#A5ABB6" stroke="none" d="M 12.066987298107785,21.900635094610966 L 12.933012701892222,21.400635094610966 A 43.93261187916006 43.93261187916006 0 0 0 14.5339802215545,23.96550823430186 L 13.704396255034617,24.523890220484375 A 44.93261187916006 44.93261187916006 0 0 1 12.066987298107785,21.900635094610966 Z M 85.24996612007583,28.494496262332465 L 84.48726406375215,27.847746253998768 A 43.93261187916006 43.93261187916006 0 0 0 86.36221432947777,25.475778142329325 L 83.94607455274746,23.697501285565558 L 90.91421695804827,20.13449813941924 L 89.58373403178484,27.846813951347684 L 87.16759425505454,26.068537094583917 A 44.93261187916006 44.93261187916006 0 0 1 85.24996612007583,28.494496262332465"/><text text-anchor="middle" pointer-events="none" font-size="8px" fill="#000000" x="48.51765689486541" y="46.798672881622366" transform="rotate(180 48.51765689486541 43.798672881622366)" font-family="sans-serif">CHEAPEST_FLIGHT</text></g><g class="relationship" transform="translate(102.14237785370246 13.744327547230712) rotate(399.0116822024607)"><path class="outline" fill="#A5ABB6" stroke="none" d="M 21.40063509461097,-12.933012701892217 L 21.90063509461097,-12.06698729810778 A 57.73026686100546 57.73026686100546 0 0 1 21.986159991607312,-12.116267681735373 L 21.48764144841752,-12.983146717181455 A 58.73026686100546 58.73026686100546 0 0 0 21.40063509461097,-12.933012701892217 Z M 76.7896362463481,-14.720920211907128 L 76.34652796313827,-13.824452114677314 A 57.73026686100546 57.73026686100546 0 0 1 76.43497818120467,-13.780638610586402 L 75.10105694446969,-11.093511123066055 L 82.92726252487465,-11.116010306124835 L 78.21353983018466,-17.363475260613534 L 76.87961859344968,-14.676347773093186 A 58.73026686100546 58.73026686100546 0 0 0 76.7896362463481,-14.720920211907128"/><text text-anchor="middle" pointer-events="none" font-size="8px" fill="#000000" x="48.9368816587573" y="-17.27264871139743" font-family="sans-serif">CHEAPEST…</text></g></g><g class="layer nodes"><g class="node" transform="translate(167.54279834910153,184.52417868227587)"><circle class="outline" cx="0" cy="0" r="25" fill="#ECB5C9" stroke="#da7298" stroke-width="2px"/><text text-anchor="middle" pointer-events="none" font-family="sans-serif" dy="1.5625" font-size="25" fill="#604A0E"/><text text-anchor="middle" pointer-events="none" y="5" font-size="10px" fill="#604A0E" font-family="sans-serif"> LAX</text></g><g class="node" transform="translate(183.977868250481,80.04103289160767)"><circle class="outline" cx="0" cy="0" r="25" fill="#ECB5C9" stroke="#da7298" stroke-width="2px"/><text text-anchor="middle" pointer-events="none" font-family="sans-serif" dy="1.5625" font-size="25" fill="#604A0E"/><text text-anchor="middle" pointer-events="none" y="5" font-size="10px" fill="#604A0E" font-family="sans-serif"> ORD</text></g><g class="node" transform="translate(102.14237785370246,13.744327547230712)"><circle class="outline" cx="0" cy="0" r="25" fill="#ECB5C9" stroke="#da7298" stroke-width="2px"/><text text-anchor="middle" pointer-events="none" font-family="sans-serif" dy="1.5625" font-size="25" fill="#604A0E"/><text text-anchor="middle" pointer-events="none" y="5" font-size="10px" fill="#604A0E" font-family="sans-serif"> MSP</text></g><g class="node" transform="translate(3.3570017060336443,51.43991201792623)"><circle class="outline" cx="0" cy="0" r="25" fill="#ECB5C9" stroke="#da7298" stroke-width="2px"/><text text-anchor="middle" pointer-events="none" font-family="sans-serif" dy="1.5625" font-size="25" fill="#604A0E"/><text text-anchor="middle" pointer-events="none" y="5" font-size="10px" fill="#604A0E" font-family="sans-serif"> DAY</text></g></g></svg>