<svg xmlns="http://www.w3.org/2000/svg" width="781.60693359375" height="480.5228576660156" viewBox="-233.0767822265625 -142.4893798828125 781.60693359375 480.5228576660156"><title>Neo4j Graph Visualization</title><desc>Created using Neo4j (http://www.neo4j.com/)</desc><g class="layer relationships"><g class="relationship" transform="translate(123.16687559493823 130.6903775218807) rotate(355.4560480555118)"><path class="outline" fill="#A5ABB6" stroke="none" d="M 25 0.5 L 172.5252809198608 0.5 L 172.5252809198608 -0.5 L 25 -0.5 Z M 218.0877809198608 0.5 L 365.6130618397216 0.5 L 365.6130618397216 3.5 L 372.6130618397216 0 L 365.6130618397216 -3.5 L 365.6130618397216 -0.5 L 218.0877809198608 -0.5 Z"/><text text-anchor="middle" pointer-events="none" font-size="8px" fill="#000000" x="195.3065309198608" y="3" font-family="sans-serif">ACTED_IN</text></g><g class="relationship" transform="translate(123.16687559493823 130.6903775218807) rotate(189.28407808721897)"><path class="outline" fill="#A5ABB6" stroke="none" d="M 25 0.5 L 139.51237629954142 0.5 L 139.51237629954142 -0.5 L 25 -0.5 Z M 185.07487629954142 0.5 L 299.58725259908283 0.5 L 299.58725259908283 3.5 L 306.58725259908283 0 L 299.58725259908283 -3.5 L 299.58725259908283 -0.5 L 185.07487629954142 -0.5 Z"/><text text-anchor="middle" pointer-events="none" font-size="8px" fill="#000000" x="162.29362629954142" y="3" transform="rotate(180 162.29362629954142 0)" font-family="sans-serif">ACTED_IN</text></g><g class="relationship" transform="translate(153.90380271529114 -2.5324934715590572) rotate(275.5990110097753)"><path class="outline" fill="#A5ABB6" stroke="none" d="M 25 0.5 L 29.46314869093208 0.5 L 29.46314869093208 -0.5 L 25 -0.5 Z M 75.02564869093209 0.5 L 79.48879738186416 0.5 L 79.48879738186416 3.5 L 86.48879738186416 0 L 79.48879738186416 -3.5 L 79.48879738186416 -0.5 L 75.02564869093209 -0.5 Z"/><text text-anchor="middle" pointer-events="none" font-size="8px" fill="#000000" x="52.24439869093208" y="3" font-family="sans-serif">ACTED_IN</text></g><g class="relationship" transform="translate(153.90380271529114 -2.5324934715590572) rotate(205.54538929168473)"><path class="outline" fill="#A5ABB6" stroke="none" d="M 25 0.5 L 32.67192422055124 0.5 L 32.67192422055124 -0.5 L 25 -0.5 Z M 78.23442422055123 0.5 L 85.90634844110248 0.5 L 85.90634844110248 3.5 L 92.90634844110248 0 L 85.90634844110248 -3.5 L 85.90634844110248 -0.5 L 78.23442422055123 -0.5 Z"/><text text-anchor="middle" pointer-events="none" font-size="8px" fill="#000000" x="55.45317422055124" y="3" transform="rotate(180 55.45317422055124 0)" font-family="sans-serif">ACTED_IN</text></g><g class="relationship" transform="translate(153.90380271529114 -2.5324934715590572) rotate(527.4442295310034)"><path class="outline" fill="#A5ABB6" stroke="none" d="M 25 0.5 L 157.09449591740758 0.5 L 157.09449591740758 -0.5 L 25 -0.5 Z M 202.65699591740758 0.5 L 334.75149183481517 0.5 L 334.75149183481517 3.5 L 341.75149183481517 0 L 334.75149183481517 -3.5 L 334.75149183481517 -0.5 L 202.65699591740758 -0.5 Z"/><text text-anchor="middle" pointer-events="none" font-size="8px" fill="#000000" x="179.87574591740758" y="3" transform="rotate(180 179.87574591740758 0)" font-family="sans-serif">ACTED_IN</text></g><g class="relationship" transform="translate(153.90380271529114 -2.5324934715590572) rotate(375.5473219374637)"><path class="outline" fill="#A5ABB6" stroke="none" d="M 25 0.5 L 163.47524214884444 0.5 L 163.47524214884444 -0.5 L 25 -0.5 Z M 209.03774214884444 0.5 L 347.5129842976889 0.5 L 347.5129842976889 3.5 L 354.5129842976889 0 L 347.5129842976889 -3.5 L 347.5129842976889 -0.5 L 209.03774214884444 -0.5 Z"/><text text-anchor="middle" pointer-events="none" font-size="8px" fill="#000000" x="186.25649214884444" y="3" font-family="sans-serif">ACTED_IN</text></g><g class="relationship" transform="translate(185.14992816016724 58.095272185419006) rotate(537.1906144038894)"><path class="outline" fill="#A5ABB6" stroke="none" d="M 25 0.5 L 168.56628628200255 0.5 L 168.56628628200255 -0.5 L 25 -0.5 Z M 214.12878628200255 0.5 L 357.6950725640051 0.5 L 357.6950725640051 3.5 L 364.6950725640051 0 L 357.6950725640051 -3.5 L 357.6950725640051 -0.5 L 214.12878628200255 -0.5 Z"/><text text-anchor="middle" pointer-events="none" font-size="8px" fill="#000000" x="191.34753628200255" y="3" transform="rotate(180 191.34753628200255 0)" font-family="sans-serif">ACTED_IN</text></g><g class="relationship" transform="translate(185.14992816016724 58.095272185419006) rotate(367.006405950774)"><path class="outline" fill="#A5ABB6" stroke="none" d="M 25 0.5 L 142.1667588413374 0.5 L 142.1667588413374 -0.5 L 25 -0.5 Z M 187.7292588413374 0.5 L 304.8960176826748 0.5 L 304.8960176826748 3.5 L 311.8960176826748 0 L 304.8960176826748 -3.5 L 304.8960176826748 -0.5 L 187.7292588413374 -0.5 Z"/><text text-anchor="middle" pointer-events="none" font-size="8px" fill="#000000" x="164.9480088413374" y="3" font-family="sans-serif">ACTED_IN</text></g><g class="relationship" transform="translate(162.34169164046412 199.30792096913228) rotate(198.4311328160282)"><path class="outline" fill="#A5ABB6" stroke="none" d="M 25 0.5 L 166.8339535087726 0.5 L 166.8339535087726 -0.5 L 25 -0.5 Z M 212.3964535087726 0.5 L 354.2304070175452 0.5 L 354.2304070175452 3.5 L 361.2304070175452 0 L 354.2304070175452 -3.5 L 354.2304070175452 -0.5 L 212.3964535087726 -0.5 Z"/><text text-anchor="middle" pointer-events="none" font-size="8px" fill="#000000" x="189.6152035087726" y="3" transform="rotate(180 189.6152035087726 0)" font-family="sans-serif">ACTED_IN</text></g><g class="relationship" transform="translate(162.34169164046412 199.30792096913228) rotate(344.34210821769454)"><path class="outline" fill="#A5ABB6" stroke="none" d="M 25 0.5 L 159.19598886956518 0.5 L 159.19598886956518 -0.5 L 25 -0.5 Z M 204.75848886956518 0.5 L 338.95447773913037 0.5 L 338.95447773913037 3.5 L 345.95447773913037 0 L 338.95447773913037 -3.5 L 338.95447773913037 -0.5 L 204.75848886956518 -0.5 Z"/><text text-anchor="middle" pointer-events="none" font-size="8px" fill="#000000" x="181.97723886956518" y="3" font-family="sans-serif">ACTED_IN</text></g><g class="relationship" transform="translate(162.34169164046412 199.30792096913228) rotate(183.50191206034089)"><path class="outline" fill="#A5ABB6" stroke="none" d="M 25 0.5 L 35.3016987608002 0.5 L 35.3016987608002 -0.5 L 25 -0.5 Z M 80.8641987608002 0.5 L 91.1658975216004 0.5 L 91.1658975216004 3.5 L 98.1658975216004 0 L 91.1658975216004 -3.5 L 91.1658975216004 -0.5 L 80.8641987608002 -0.5 Z"/><text text-anchor="middle" pointer-events="none" font-size="8px" fill="#000000" x="58.0829487608002" y="3" transform="rotate(180 58.0829487608002 0)" font-family="sans-serif">ACTED_IN</text></g><g class="relationship" transform="translate(162.34169164046412 199.30792096913228) rotate(369.631830272382)"><path class="outline" fill="#A5ABB6" stroke="none" d="M 25 0.5 L 35.18050693557265 0.5 L 35.18050693557265 -0.5 L 25 -0.5 Z M 80.74300693557265 0.5 L 90.9235138711453 0.5 L 90.9235138711453 3.5 L 97.9235138711453 0 L 90.9235138711453 -3.5 L 90.9235138711453 -0.5 L 80.74300693557265 -0.5 Z"/><text text-anchor="middle" pointer-events="none" font-size="8px" fill="#000000" x="57.96175693557265" y="3" font-family="sans-serif">ACTED_IN</text></g><g class="relationship" transform="translate(162.34169164046412 199.30792096913228) rotate(439.88337275735705)"><path class="outline" fill="#A5ABB6" stroke="none" d="M 25 0.5 L 29.447990630869896 0.5 L 29.447990630869896 -0.5 L 25 -0.5 Z M 75.0104906308699 0.5 L 79.45848126173979 0.5 L 79.45848126173979 3.5 L 86.45848126173979 0 L 79.45848126173979 -3.5 L 79.45848126173979 -0.5 L 75.0104906308699 -0.5 Z"/><text text-anchor="middle" pointer-events="none" font-size="8px" fill="#000000" x="52.229240630869896" y="3" font-family="sans-serif">ACTED_IN</text></g><g class="relationship" transform="translate(162.34169164046412 199.30792096913228) rotate(497.22731771954204)"><path class="outline" fill="#A5ABB6" stroke="none" d="M 25 0.5 L 33.15151291546938 0.5 L 33.15151291546938 -0.5 L 25 -0.5 Z M 78.71401291546938 0.5 L 86.86552583093876 0.5 L 86.86552583093876 3.5 L 93.86552583093876 0 L 86.86552583093876 -3.5 L 86.86552583093876 -0.5 L 78.71401291546938 -0.5 Z"/><text text-anchor="middle" pointer-events="none" font-size="8px" fill="#000000" x="55.93276291546938" y="3" transform="rotate(180 55.93276291546938 0)" font-family="sans-serif">ACTED_IN</text></g></g><g class="layer nodes"><g class="node" transform="translate(519.5301815161699,99.18995427471854)"><circle class="outline" cx="0" cy="0" r="25" fill="#57C7E3" stroke="#23b3d7" stroke-width="2px"/><text text-anchor="middle" pointer-events="none" font-family="sans-serif" dy="1.5625" font-size="25" fill="#FFFFFF"/><text text-anchor="middle" pointer-events="none" font-family="sans-serif" dy="1.5625" font-size="25" fill="#FFFFFF"/><text text-anchor="middle" pointer-events="none" font-family="sans-serif" dy="1.5625" font-size="25" fill="#FFFFFF"/><text text-anchor="middle" pointer-events="none" y="-5" font-size="10px" fill="#FFFFFF" font-family="sans-serif"> The</text><text text-anchor="middle" pointer-events="none" y="5" font-size="10px" fill="#FFFFFF" font-family="sans-serif"> Matrix</text><text text-anchor="middle" pointer-events="none" y="15" font-size="10px" fill="#FFFFFF" font-family="sans-serif"> Reloa…</text></g><g class="node" transform="translate(123.16687559493823,130.6903775218807)"><circle class="outline" cx="0" cy="0" r="25" fill="#F79767" stroke="#f36924" stroke-width="2px"/><text text-anchor="middle" pointer-events="none" font-family="sans-serif" dy="1.5625" font-size="25" fill="#FFFFFF"/><text text-anchor="middle" pointer-events="none" font-family="sans-serif" dy="1.5625" font-size="25" fill="#FFFFFF"/><text text-anchor="middle" pointer-events="none" y="0" font-size="10px" fill="#FFFFFF" font-family="sans-serif"> Laurence</text><text text-anchor="middle" pointer-events="none" y="10" font-size="10px" fill="#FFFFFF" font-family="sans-serif"> Fishbur…</text></g><g class="node" transform="translate(153.90380271529114,-2.5324934715590572)"><circle class="outline" cx="0" cy="0" r="25" fill="#F79767" stroke="#f36924" stroke-width="2px"/><text text-anchor="middle" pointer-events="none" font-family="sans-serif" dy="1.5625" font-size="25" fill="#FFFFFF"/><text text-anchor="middle" pointer-events="none" font-family="sans-serif" dy="1.5625" font-size="25" fill="#FFFFFF"/><text text-anchor="middle" pointer-events="none" y="0" font-size="10px" fill="#FFFFFF" font-family="sans-serif"> Hugo</text><text text-anchor="middle" pointer-events="none" y="10" font-size="10px" fill="#FFFFFF" font-family="sans-serif"> Weaving</text></g><g class="node" transform="translate(185.14992816016724,58.095272185419006)"><circle class="outline" cx="0" cy="0" r="25" fill="#F79767" stroke="#f36924" stroke-width="2px"/><text text-anchor="middle" pointer-events="none" font-family="sans-serif" dy="1.5625" font-size="25" fill="#FFFFFF"/><text text-anchor="middle" pointer-events="none" y="5" font-size="10px" fill="#FFFFFF" font-family="sans-serif"> Carrie-A…</text></g><g class="node" transform="translate(162.34169164046412,199.30792096913228)"><circle class="outline" cx="0" cy="0" r="25" fill="#F79767" stroke="#f36924" stroke-width="2px"/><text text-anchor="middle" pointer-events="none" font-family="sans-serif" dy="1.5625" font-size="25" fill="#FFFFFF"/><text text-anchor="middle" pointer-events="none" font-family="sans-serif" dy="1.5625" font-size="25" fill="#FFFFFF"/><text text-anchor="middle" pointer-events="none" y="0" font-size="10px" fill="#FFFFFF" font-family="sans-serif"> Keanu</text><text text-anchor="middle" pointer-events="none" y="10" font-size="10px" fill="#FFFFFF" font-family="sans-serif"> Reeves</text></g><g class="node" transform="translate(-204.0767784233062,77.19554607999781)"><circle class="outline" cx="0" cy="0" r="25" fill="#57C7E3" stroke="#23b3d7" stroke-width="2px"/><text text-anchor="middle" pointer-events="none" font-family="sans-serif" dy="1.5625" font-size="25" fill="#FFFFFF"/><text text-anchor="middle" pointer-events="none" font-family="sans-serif" dy="1.5625" font-size="25" fill="#FFFFFF"/><text text-anchor="middle" pointer-events="none" font-family="sans-serif" dy="1.5625" font-size="25" fill="#FFFFFF"/><text text-anchor="middle" pointer-events="none" y="-5" font-size="10px" fill="#FFFFFF" font-family="sans-serif"> The</text><text text-anchor="middle" pointer-events="none" y="5" font-size="10px" fill="#FFFFFF" font-family="sans-serif"> Matrix</text><text text-anchor="middle" pointer-events="none" y="15" font-size="10px" fill="#FFFFFF" font-family="sans-serif"> Revol…</text></g><g class="node" transform="translate(164.78128761409596,-113.48938719128533)"><circle class="outline" cx="0" cy="0" r="25" fill="#57C7E3" stroke="#23b3d7" stroke-width="2px"/><text text-anchor="middle" pointer-events="none" font-family="sans-serif" dy="1.5625" font-size="25" fill="#FFFFFF"/><text text-anchor="middle" pointer-events="none" font-family="sans-serif" dy="1.5625" font-size="25" fill="#FFFFFF"/><text text-anchor="middle" pointer-events="none" y="0" font-size="10px" fill="#FFFFFF" font-family="sans-serif"> Cloud</text><text text-anchor="middle" pointer-events="none" y="10" font-size="10px" fill="#FFFFFF" font-family="sans-serif"> Atlas</text></g><g class="node" transform="translate(47.523512758631135,-53.376774481832115)"><circle class="outline" cx="0" cy="0" r="25" fill="#57C7E3" stroke="#23b3d7" stroke-width="2px"/><text text-anchor="middle" pointer-events="none" font-family="sans-serif" dy="1.5625" font-size="25" fill="#FFFFFF"/><text text-anchor="middle" pointer-events="none" font-family="sans-serif" dy="1.5625" font-size="25" fill="#FFFFFF"/><text text-anchor="middle" pointer-events="none" y="0" font-size="10px" fill="#FFFFFF" font-family="sans-serif"> V for</text><text text-anchor="middle" pointer-events="none" y="10" font-size="10px" fill="#FFFFFF" font-family="sans-serif"> Vendetta</text></g><g class="node" transform="translate(39.40577433920099,191.7847202142432)"><circle class="outline" cx="0" cy="0" r="25" fill="#57C7E3" stroke="#23b3d7" stroke-width="2px"/><text text-anchor="middle" pointer-events="none" font-family="sans-serif" dy="1.5625" font-size="25" fill="#FFFFFF"/><text text-anchor="middle" pointer-events="none" y="5" font-size="10px" fill="#FFFFFF" font-family="sans-serif"> Somethi…</text></g><g class="node" transform="translate(283.5323819558844,219.8750511360164)"><circle class="outline" cx="0" cy="0" r="25" fill="#57C7E3" stroke="#23b3d7" stroke-width="2px"/><text text-anchor="middle" pointer-events="none" font-family="sans-serif" dy="1.5625" font-size="25" fill="#FFFFFF"/><text text-anchor="middle" pointer-events="none" font-family="sans-serif" dy="1.5625" font-size="25" fill="#FFFFFF"/><text text-anchor="middle" pointer-events="none" font-family="sans-serif" dy="1.5625" font-size="25" fill="#FFFFFF"/><text text-anchor="middle" pointer-events="none" y="-5" font-size="10px" fill="#FFFFFF" font-family="sans-serif"> The</text><text text-anchor="middle" pointer-events="none" y="5" font-size="10px" fill="#FFFFFF" font-family="sans-serif"> Devil's</text><text text-anchor="middle" pointer-events="none" y="15" font-size="10px" fill="#FFFFFF" font-family="sans-serif"> Advoc…</text></g><g class="node" transform="translate(181.9196437879759,309.0334733025944)"><circle class="outline" cx="0" cy="0" r="25" fill="#57C7E3" stroke="#23b3d7" stroke-width="2px"/><text text-anchor="middle" pointer-events="none" font-family="sans-serif" dy="1.5625" font-size="25" fill="#FFFFFF"/><text text-anchor="middle" pointer-events="none" font-family="sans-serif" dy="1.5625" font-size="25" fill="#FFFFFF"/><text text-anchor="middle" pointer-events="none" y="0" font-size="10px" fill="#FFFFFF" font-family="sans-serif"> The</text><text text-anchor="middle" pointer-events="none" y="10" font-size="10px" fill="#FFFFFF" font-family="sans-serif"> Replac…</text></g><g class="node" transform="translate(75.08800928088782,280.02847687504595)"><circle class="outline" cx="0" cy="0" r="25" fill="#57C7E3" stroke="#23b3d7" stroke-width="2px"/><text text-anchor="middle" pointer-events="none" font-family="sans-serif" dy="1.5625" font-size="25" fill="#FFFFFF"/><text text-anchor="middle" pointer-events="none" font-family="sans-serif" dy="1.5625" font-size="25" fill="#FFFFFF"/><text text-anchor="middle" pointer-events="none" y="0" font-size="10px" fill="#FFFFFF" font-family="sans-serif"> Johnny</text><text text-anchor="middle" pointer-events="none" y="10" font-size="10px" fill="#FFFFFF" font-family="sans-serif"> Mnemo…</text></g></g></svg>